:FULLY-SPECIFIED
:FORCE-ALL-JOINTS-BE-3DOF
:DEGREES
34
root 5.95809 16.8941 -28.0886 10.0446 -1.70192 -2.10796
lfemur -20.3312 1.44929 -19.8234
ltibia 34.0214 0 0
lfoot -35.6297 4.26533 0
ltoes 35.5576 0 0
rfemur -17.1467 5.86322 19.4791
rtibia 30.9573 0 0
rfoot -27.4029 -18.0069 0
rtoes 12.2501 0 0
lowerback -5.38834 2.44935 -0.698477
upperback -1.83188 3.28297 0.496059
thorax 1.03708 1.65712 1.09271
lowerneck -9.53183 -1.60646 2.85572
upperneck -2.81364 -2.41914 0.917534
head 0.683687 -1.21614 -0.27324
lclavicle 2.28274e-14 6.3521e-15 0
lhumerus -41.436 -12.864 96.7919
lradius 39.6934 0 0
lwrist 6.19104 0 0
lhand -11.7903 4.08347 0
lfingers 7.12502 0 0
lthumb 14.2591 33.5735 0
rclavicle 2.28274e-14 6.3521e-15 0
rhumerus -40.5034 -5.0454 -89.1778
rradius 39.0509 0 0
rwrist 10.8847 0 0
rhand -26.4356 -20.5059 0
rfingers 7.12502 0 0
rthumb 0.124954 -50.4839 0
35
root 5.95117 16.8955 -28.0874 10.0695 -1.68182 -2.0849
lfemur -20.3302 1.42858 -19.8192
ltibia 33.9752 0 0
lfoot -35.5563 4.2733 0
ltoes 35.4751 0 0
rfemur -17.0902 6.00022 19.478
rtibia 30.834 0 0
rfoot -27.3307 -18.1892 0
rtoes 12.0268 0 0
lowerback -5.46935 2.41972 -0.593131
upperback -1.8116 3.2412 0.423305
thorax 1.11965 1.63252 0.963267
lowerneck -9.52418 -1.58795 2.87776
upperneck -2.84847 -2.39714 0.979961
head 0.672018 -1.20443 -0.256186
lclavicle 2.37833e-14 7.40396e-15 0
lhumerus -41.429 -12.9138 96.7181
lradius 39.8192 0 0
lwrist 6.28853 0 0
lhand -11.8193 3.94818 0
lfingers 7.12502 0 0
lthumb 14.2311 33.4403 0
rclavicle 2.37833e-14 7.40396e-15 0
rhumerus -40.4362 -5.04985 -89.2969
rradius 39.0163 0 0
rwrist 10.9087 0 0
rhand -26.4997 -20.458 0
rfingers 7.12502 0 0
rthumb 0.0630707 -50.4364 0
36
root 5.94499 16.8968 -28.0864 10.0916 -1.66388 -2.06432
lfemur -20.3294 1.41009 -19.8155
ltibia 33.9339 0 0
lfoot -35.4908 4.28041 0
ltoes 35.4016 0 0
rfemur -17.0398 6.1225 19.477
rtibia 30.724 0 0
rfoot -27.2662 -18.3519 0
rtoes 11.8274 0 0
lowerback -5.54165 2.39328 -0.499109
upperback -1.7935 3.20391 0.358372
thorax 1.19334 1.61057 0.84774
lowerneck -9.51735 -1.57144 2.89742
upperneck -2.87954 -2.3775 1.03568
head 0.661604 -1.19399 -0.240966
lclavicle 2.46365e-14 8.34275e-15 0
lhumerus -41.4227 -12.9583 96.6523
lradius 39.9316 0 0
lwrist 6.37555 0 0
lhand -11.8452 3.82742 0
lfingers 7.12502 0 0
lthumb 14.2061 33.3213 0
rclavicle 2.46365e-14 8.34275e-15 0
rhumerus -40.3762 -5.05382 -89.4033
rradius 38.9854 0 0
rwrist 10.9302 0 0
rhand -26.5569 -20.4153 0
rfingers 7.12502 0 0
rthumb 0.00783939 -50.3941 0
37
root 5.93961 16.8979 -28.0854 10.1109 -1.64827 -2.04641
lfemur -20.3286 1.39399 -19.8122
ltibia 33.8979 0 0
lfoot -35.4337 4.2866 0
ltoes 35.3375 0 0
rfemur -16.9958 6.22895 19.4761
rtibia 30.6283 0 0
rfoot -27.2101 -18.4936 0
rtoes 11.6539 0 0
lowerback -5.6046 2.37026 -0.417251
upperback -1.77774 3.17146 0.301839
thorax 1.25751 1.59146 0.747158
lowerneck -9.5114 -1.55706 2.91455
upperneck -2.9066 -2.36041 1.08419
head 0.652536 -1.18489 -0.227715
lclavicle 2.53794e-14 9.16009e-15 0
lhumerus -41.4173 -12.9969 96.5949
lradius 40.0294 0 0
lwrist 6.45131 0 0
lhand -11.8678 3.72229 0
lfingers 7.12502 0 0
lthumb 14.1844 33.2178 0
rclavicle 2.53794e-14 9.16009e-15 0
rhumerus -40.3239 -5.05727 -89.4959
rradius 38.9585 0 0
rwrist 10.9488 0 0
rhand -26.6067 -20.3782 0
rfingers 7.12502 0 0
rthumb -0.0402467 -50.3572 0
38
root 5.93509 16.8988 -28.0847 10.1272 -1.63513 -2.03133
lfemur -20.328 1.38045 -19.8095
ltibia 33.8677 0 0
lfoot -35.3857 4.29181 0
ltoes 35.2836 0 0
rfemur -16.9589 6.3185 19.4754
rtibia 30.5477 0 0
rfoot -27.1629 -18.6128 0
rtoes 11.508 0 0
lowerback -5.65756 2.35089 -0.348395
upperback -1.76448 3.14415 0.254286
thorax 1.31147 1.57538 0.662552
lowerneck -9.5064 -1.54496 2.92895
upperneck -2.92936 -2.34602 1.12499
head 0.644909 -1.17724 -0.216569
lclavicle 2.60042e-14 9.84761e-15 0
lhumerus -41.4127 -13.0295 96.5467
lradius 40.1116 0 0
lwrist 6.51503 0 0
lhand -11.8868 3.63386 0
lfingers 7.12502 0 0
lthumb 14.1661 33.1307 0
rclavicle 2.60042e-14 9.84761e-15 0
rhumerus -40.28 -5.06018 -89.5737
rradius 38.9359 0 0
rwrist 10.9646 0 0
rhand -26.6486 -20.3469 0
rfingers 7.12502 0 0
rthumb -0.0806949 -50.3262 0
39
root 5.93148 16.8995 -28.084 10.1401 -1.62463 -2.01929
lfemur -20.3275 1.36963 -19.8073
ltibia 33.8435 0 0
lfoot -35.3474 4.29597 0
ltoes 35.2405 0 0
rfemur -16.9294 6.39004 19.4748
rtibia 30.4833 0 0
rfoot -27.1252 -18.708 0
rtoes 11.3913 0 0
lowerback -5.69986 2.33542 -0.29338
upperback -1.75389 3.12234 0.216291
thorax 1.35459 1.56254 0.594953
lowerneck -9.50241 -1.5353 2.94045
upperneck -2.94755 -2.33453 1.15759
head 0.638816 -1.17113 -0.207663
lclavicle 2.65034e-14 1.03969e-14 0
lhumerus -41.409 -13.0555 96.5082
lradius 40.1774 0 0
lwrist 6.56595 0 0
lhand -11.9019 3.5632 0
lfingers 7.12502 0 0
lthumb 14.1515 33.0611 0
rclavicle 2.65034e-14 1.03969e-14 0
rhumerus -40.2449 -5.0625 -89.6359
rradius 38.9178 0 0
rwrist 10.9771 0 0
rhand -26.682 -20.3219 0
rfingers 7.12502 0 0
rthumb -0.113012 -50.3014 0
40
root 5.92883 16.9001 -28.0836 10.1497 -1.61694 -2.01046
lfemur -20.3271 1.3617 -19.8057
ltibia 33.8258 0 0
lfoot -35.3193 4.29902 0
ltoes 35.2089 0 0
rfemur -16.9078 6.4425 19.4744
rtibia 30.4361 0 0
rfoot -27.0975 -18.7778 0
rtoes 11.3058 0 0
lowerback -5.73088 2.32408 -0.253046
upperback -1.74613 3.10634 0.188435
thorax 1.38621 1.55312 0.545393
lowerneck -9.49948 -1.52821 2.94889
upperneck -2.96088 -2.32611 1.18149
head 0.634348 -1.16665 -0.201133
lclavicle 2.68694e-14 1.07997e-14 0
lhumerus -41.4063 -13.0746 96.4799
lradius 40.2255 0 0
lwrist 6.60328 0 0
lhand -11.913 3.5114 0
lfingers 7.12502 0 0
lthumb 14.1408 33.0101 0
rclavicle 2.68694e-14 1.07997e-14 0
rhumerus -40.2191 -5.06421 -89.6816
rradius 38.9045 0 0
rwrist 10.9863 0 0
rhand -26.7066 -20.3036 0
rfingers 7.12502 0 0
rthumb -0.136706 -50.2832 0
41
root 5.9272 16.9004 -28.0833 10.1555 -1.6122 -2.00503
lfemur -20.3269 1.35682 -19.8047
ltibia 33.8149 0 0
lfoot -35.302 4.3009 0
ltoes 35.1895 0 0
rfemur -16.8944 6.47477 19.4741
rtibia 30.4071 0 0
rfoot -27.0805 -18.8208 0
rtoes 11.2532 0 0
lowerback -5.74997 2.3171 -0.228229
upperback -1.74135 3.0965 0.171297
thorax 1.40566 1.54732 0.5149
lowerneck -9.49767 -1.52386 2.95408
upperneck -2.96908 -2.32093 1.1962
head 0.631599 -1.16389 -0.197116
lclavicle 2.70946e-14 1.10474e-14 0
lhumerus -41.4047 -13.0863 96.4625
lradius 40.2552 0 0
lwrist 6.62624 0 0
lhand -11.9199 3.47952 0
lfingers 7.12502 0 0
lthumb 14.1342 32.9787 0
rclavicle 2.70946e-14 1.10474e-14 0
rhumerus -40.2033 -5.06525 -89.7096
rradius 38.8964 0 0
rwrist 10.992 0 0
rhand -26.7217 -20.2923 0
rfingers 7.12502 0 0
rthumb -0.151284 -50.272 0
42
root 5.92664 16.9005 -28.0832 10.1575 -1.61059 -2.00318
lfemur -20.3268 1.35516 -19.8044
ltibia 33.8112 0 0
lfoot -35.2961 4.30154 0
ltoes 35.1829 0 0
rfemur -16.8899 6.48577 19.474
rtibia 30.3972 0 0
rfoot -27.0747 -18.8354 0
rtoes 11.2353 0 0
lowerback -5.75647 2.31472 -0.219771
upperback -1.73972 3.09315 0.165455
thorax 1.41229 1.54535 0.504507
lowerneck -9.49706 -1.52237 2.95585
upperneck -2.97188 -2.31916 1.20121
head 0.630662 -1.16295 -0.195747
lclavicle 2.71714e-14 1.11319e-14 0
lhumerus -41.4041 -13.0903 96.4566
lradius 40.2653 0 0
lwrist 6.63407 0 0
lhand -11.9222 3.46866 0
lfingers 7.12502 0 0
lthumb 14.132 32.968 0
rclavicle 2.71714e-14 1.11319e-14 0
rhumerus -40.1979 -5.06561 -89.7192
rradius 38.8936 0 0
rwrist 10.9939 0 0
rhand -26.7268 -20.2885 0
rfingers 7.12502 0 0
rthumb -0.156253 -50.2682 0
43
root 5.92726 16.9002 -28.0823 10.1584 -1.60069 -2.01002
lfemur -20.3581 1.37259 -19.7899
ltibia 33.834 0 0
lfoot -35.2676 4.3015 0
ltoes 35.1569 0 0
rfemur -16.8831 6.46975 19.4802
rtibia 30.3915 0 0
rfoot -27.0763 -18.8329 0
rtoes 11.1989 0 0
lowerback -5.75191 2.3171 -0.213699
upperback -1.73998 3.09616 0.166
thorax 1.40991 1.54683 0.501587
lowerneck -9.49874 -1.52584 2.95639
upperneck -2.97589 -2.32377 1.20172
head 0.629628 -1.1653 -0.195795
lclavicle 2.71078e-14 1.11333e-14 0
lhumerus -41.4065 -13.0823 96.4481
lradius 40.2731 0 0
lwrist 6.63864 0 0
lhand -11.9207 3.46666 0
lfingers 7.12502 0 0
lthumb 14.1334 32.9659 0
rclavicle 2.71078e-14 1.11333e-14 0
rhumerus -40.1929 -5.05082 -89.7188
rradius 38.9026 0 0
rwrist 10.9875 0 0
rhand -26.7212 -20.2901 0
rfingers 7.12502 0 0
rthumb -0.150889 -50.2698 0
44
root 5.92909 16.8992 -28.0796 10.1609 -1.57166 -2.03009
lfemur -20.4498 1.42373 -19.7472
ltibia 33.9011 0 0
lfoot -35.1841 4.3014 0
ltoes 35.0804 0 0
rfemur -16.863 6.42275 19.4983
rtibia 30.3749 0 0
rfoot -27.0809 -18.8254 0
rtoes 11.0922 0 0
lowerback -5.73854 2.32407 -0.195886
upperback -1.74073 3.105 0.167599
thorax 1.40291 1.55116 0.493021
lowerneck -9.50366 -1.53604 2.95796
upperneck -2.98767 -2.3373 1.2032
head 0.626596 -1.17219 -0.195934
lclavicle 2.69213e-14 1.11374e-14 0
lhumerus -41.4134 -13.0587 96.4232
lradius 40.296 0 0
lwrist 6.65205 0 0
lhand -11.9164 3.46077 0
lfingers 7.12502 0 0
lthumb 14.1376 32.9597 0
rclavicle 2.69213e-14 1.11374e-14 0
rhumerus -40.1782 -5.00743 -89.7176
rradius 38.9289 0 0
rwrist 10.9687 0 0
rhand -26.705 -20.2949 0
rfingers 7.12502 0 0
rthumb -0.135152 -50.2745 0
45
root 5.93207 16.8977 -28.0752 10.165 -1.52448 -2.06271
lfemur -20.5988 1.50686 -19.6778
ltibia 34.01 0 0
lfoot -35.0483 4.30123 0
ltoes 34.9562 0 0
rfemur -16.8303 6.34637 19.5277
rtibia 30.3479 0 0
rfoot -27.0885 -18.8133 0
rtoes 10.9186 0 0
lowerback -5.7168 2.33541 -0.166933
upperback -1.74195 3.11937 0.170199
thorax 1.39154 1.55821 0.479098
lowerneck -9.51167 -1.5526 2.96052
upperneck -3.00681 -2.35929 1.20561
head 0.621668 -1.18338 -0.196162
lclavicle 2.66181e-14 1.1144e-14 0
lhumerus -41.4247 -13.0204 96.3828
lradius 40.3333 0 0
lwrist 6.67385 0 0
lhand -11.9094 3.45121 0
lfingers 7.12502 0 0
lthumb 14.1444 32.9497 0
rclavicle 2.66181e-14 1.1144e-14 0
rhumerus -40.1544 -4.9369 -89.7157
rradius 38.9717 0 0
rwrist 10.9381 0 0
rhand -26.6785 -20.3027 0
rfingers 7.12502 0 0
rthumb -0.109574 -50.2821 0
46
root 5.93612 16.8955 -28.0693 10.1706 -1.46011 -2.10721
lfemur -20.8022 1.62024 -19.5832
ltibia 34.1586 0 0
lfoot -34.8631 4.30099 0
ltoes 34.7868 0 0
rfemur -16.7858 6.24218 19.5679
rtibia 30.3111 0 0
rfoot -27.0988 -18.7967 0
rtoes 10.682 0 0
lowerback -5.68715 2.35088 -0.127442
upperback -1.74362 3.13897 0.173744
thorax 1.37603 1.56783 0.460107
lowerneck -9.52258 -1.5752 2.96402
upperneck -3.03292 -2.38928 1.2089
head 0.614946 -1.19866 -0.196471
lclavicle 2.62045e-14 1.11531e-14 0
lhumerus -41.44 -12.9682 96.3277
lradius 40.384 0 0
lwrist 6.70359 0 0
lhand -11.8998 3.43817 0
lfingers 7.12502 0 0
lthumb 14.1536 32.936 0
rclavicle 2.62045e-14 1.11531e-14 0
rhumerus -40.1218 -4.8407 -89.7131
rradius 39.03 0 0
rwrist 10.8964 0 0
rhand -26.6423 -20.3133 0
rfingers 7.12502 0 0
rthumb -0.0746873 -50.2924 0
47
root 5.9412 16.8929 -28.0618 10.1776 -1.37956 -2.1629
lfemur -21.0566 1.76214 -19.4648
ltibia 34.3445 0 0
lfoot -34.6313 4.3007 0
ltoes 34.5748 0 0
rfemur -16.7301 6.11177 19.6182
rtibia 30.265 0 0
rfoot -27.1117 -18.776 0
rtoes 10.3858 0 0
lowerback -5.65005 2.37023 -0.0780164
upperback -1.74571 3.16349 0.178182
thorax 1.35663 1.57986 0.436339
lowerneck -9.53624 -1.60348 2.96839
upperneck -3.06559 -2.42681 1.21302
head 0.606533 -1.21777 -0.196859
lclavicle 2.56869e-14 1.11645e-14 0
lhumerus -41.4593 -12.9028 96.2587
lradius 40.4476 0 0
lwrist 6.7408 0 0
lhand -11.8878 3.42185 0
lfingers 7.12502 0 0
lthumb 14.1652 32.9188 0
rclavicle 2.56869e-14 1.11645e-14 0
rhumerus -40.0811 -4.7203 -89.7098
rradius 39.1031 0 0
rwrist 10.8442 0 0
rhand -26.5971 -20.3265 0
rfingers 7.12502 0 0
rthumb -0.031023 -50.3054 0
